<svg width="140" height="140" viewBox="0 0 140 140" fill="none" xmlns="http://www.w3.org/2000/svg">
<path d="M61.4615 37.3836C63.7328 43.2514 59.6881 50.2866 54.5244 52.2854C49.3607 54.2842 41.8459 51.7235 39.5745 45.8556C37.3032 39.9877 40.2471 31.3277 45.4108 29.329C52.2963 26.6637 59.1901 31.5157 61.4615 37.3836Z" fill="#D1D5DB"/>
<path d="M64.373 37.1308C63.1487 43.3027 68.3471 49.5341 73.7783 50.6116C79.2095 51.689 86.1695 47.8695 87.3938 41.6977C88.6182 35.5258 84.2236 27.504 78.7924 26.4265C71.5502 24.9898 65.5974 30.959 64.373 37.1308Z" fill="#D1D5DB"/>
<path d="M117.761 82.1283C117.761 102.892 97.6165 110.611 70.1383 110.611C42.6602 110.611 22.9717 102.892 22.9717 82.1283C22.9717 57.9753 42.6602 36.5566 70.1383 36.5566C97.6165 36.5566 117.761 56.1525 117.761 82.1283Z" fill="#F3F4F6"/>
<path d="M104.83 81.8891C104.83 97.1108 90.7166 102.769 71.4652 102.769C52.2139 102.769 38.4199 97.1108 38.4199 81.8891C38.4199 64.183 52.2139 48.4814 71.4652 48.4814C90.7166 48.4814 104.83 62.8467 104.83 81.8891Z" fill="#F9FAFB"/>
<path d="M69.6481 79.7653C69.6481 84.799 66.5786 90.3211 62.2892 90.3211C57.9999 90.3211 51.0708 86.2197 51.0708 78.7004C51.0708 71.6368 58.5562 69.1246 66.2912 70.4145C71.032 71.2051 69.6481 74.7316 69.6481 79.7653Z" fill="#D1D5DB"/>
<path d="M66.0606 79.2568C66.0606 80.0119 65.8448 80.6239 64.7661 80.6239C63.6874 80.6239 63.4717 80.0119 63.4717 79.2568C63.4717 78.5017 63.9032 77.8896 64.7661 77.8896C65.6291 77.8896 66.0606 78.5017 66.0606 79.2568Z" fill="#F3F4F6"/>
<path d="M82.3418 79.7653C82.3418 84.799 85.1868 90.3211 89.1625 90.3211C93.1382 90.3211 99.5605 86.2197 99.5605 78.7004C99.5605 71.6368 92.6225 69.1246 85.4532 70.4145C81.0591 71.2051 82.3418 74.7316 82.3418 79.7653Z" fill="#D1D5DB"/>
<path d="M85.6673 79.2568C85.6673 80.0119 85.8673 80.6239 86.8671 80.6239C87.8669 80.6239 88.0669 80.0119 88.0669 79.2568C88.0669 78.5017 87.667 77.8896 86.8671 77.8896C86.0673 77.8896 85.6673 78.5017 85.6673 79.2568Z" fill="#F3F4F6"/>
<path d="M71.2237 87.0962C70.9764 86.7364 70.4842 86.6452 70.1244 86.8926C69.7646 87.14 69.6734 87.6322 69.9208 87.992L71.2237 87.0962ZM76.37 85.9629L77.1176 85.7059C77.0079 85.3866 76.7075 85.1723 76.37 85.1723C76.0324 85.1723 75.732 85.3866 75.6223 85.7059L76.37 85.9629ZM82.8191 87.992C83.0665 87.6322 82.9753 87.14 82.6155 86.8926C82.2557 86.6452 81.7635 86.7364 81.5162 87.0962L82.8191 87.992ZM69.9208 87.992C70.1585 88.3377 70.5935 88.8054 71.178 89.1918C71.7674 89.5815 72.5512 89.9159 73.4711 89.9159V88.3347C72.9416 88.3347 72.4571 88.142 72.0501 87.8728C71.6381 87.6004 71.3484 87.2775 71.2237 87.0962L69.9208 87.992ZM73.4711 89.9159C74.5853 89.9159 75.4248 89.1223 75.9588 88.4162C76.5193 87.675 76.9165 86.8048 77.1176 86.2199L75.6223 85.7059C75.461 86.1751 75.1335 86.8861 74.6976 87.4625C74.2351 88.0741 73.8064 88.3347 73.4711 88.3347V89.9159ZM75.6223 86.2199C75.8234 86.8048 76.2206 87.675 76.7811 88.4162C77.3151 89.1223 78.1546 89.9159 79.2688 89.9159V88.3347C78.9335 88.3347 78.5048 88.0741 78.0423 87.4625C77.6064 86.8861 77.2789 86.1751 77.1176 85.7059L75.6223 86.2199ZM79.2688 89.9159C80.1887 89.9159 80.9725 89.5815 81.5619 89.1918C82.1464 88.8054 82.5814 88.3377 82.8191 87.992L81.5162 87.0962C81.3915 87.2775 81.1018 87.6004 80.6898 87.8728C80.2828 88.142 79.7983 88.3347 79.2688 88.3347V89.9159Z" fill="#D1D5DB"/>
<path d="M81.1965 85.151C81.1965 85.8921 77.8095 86.8378 76.7347 87.1192C76.5222 87.1748 76.3007 87.1748 76.0883 87.1192C75.0135 86.8378 71.6265 85.8921 71.6265 85.151C71.6265 84.2701 74.2722 83.3281 76.4115 83.3281C78.5508 83.3281 81.1965 84.2701 81.1965 85.151Z" fill="#D1D5DB"/>
<path d="M77.1139 60.9648C56.7755 62.2435 51.8149 55.7512 51.0708 53.0119L62.4802 46.6495L75.3777 44.2637L93.2358 53.5421C92.161 55.7512 89.621 60.1784 77.1139 60.9648Z" fill="#D1D5DB"/>
<path fill-rule="evenodd" clip-rule="evenodd" d="M72.6055 110.676C98.6613 110.676 117.763 102.958 117.763 82.1937C117.763 56.2179 98.6613 36.6221 72.6055 36.6221C46.5498 36.6221 27.8804 58.0407 27.8804 82.1937C27.8804 102.958 46.5498 110.676 72.6055 110.676ZM71.5814 102.701C90.7474 102.701 104.798 97.0492 104.798 81.8435C104.798 62.8212 90.7474 48.471 71.5814 48.471C52.4154 48.471 38.6826 64.1561 38.6826 81.8435C38.6826 97.0492 52.4154 102.701 71.5814 102.701Z" fill="#F3F4F6"/>
<path fill-rule="evenodd" clip-rule="evenodd" d="M17.2191 65.1241C20.1086 61.8887 25.3166 62.4254 27.4855 66.1821L30.6621 71.684C32.831 75.4407 30.6918 80.2193 26.4451 81.104L25.0639 81.3917C24.9849 81.4082 24.9058 81.4231 24.8266 81.4365C24.7968 81.5186 24.759 81.5985 24.7146 81.6748C23.4569 83.8368 22.8582 88.8175 29.0549 94.5819C35.0928 100.199 40.3123 100.607 42.7149 100.007C42.8854 99.9647 43.0624 99.9526 43.2332 99.9742L43.5477 99.3507C45.5013 95.4776 50.6707 94.6481 53.7381 97.7155L58.2304 102.208C61.2977 105.275 60.4682 110.445 56.5952 112.398L56.3046 112.545C56.225 112.671 56.1116 112.78 55.964 112.86C48.3144 117.012 31.1182 115.005 21.712 101.925C9.93899 85.5528 11.125 71.6326 15.767 66.6657C15.8462 66.5811 15.9363 66.516 16.0327 66.4699C16.1116 66.3701 16.1938 66.2722 16.2794 66.1764L17.2191 65.1241Z" fill="#D1D5DB"/>
<path d="M108.264 35.4467C109.527 32.5763 110.648 32.022 112.376 31.7627C113.712 31.5576 114.811 31.2481 115.27 30.2043C115.729 29.1605 115.191 28.131 114.171 27.6824C113.175 27.2441 111.936 27.5489 111.391 28.7246L107.619 27.0655C109.2 23.5991 112.475 23.1707 115.582 24.5376C119.022 26.0506 120.783 28.8069 119.458 31.8197C118.581 33.8124 116.971 34.5765 114.964 34.8263C113.349 35.0219 112.419 35.4623 111.752 36.9806L111.606 37.3127L108.118 35.7789L108.264 35.4467ZM107.511 42.0519C106.325 41.5302 105.769 40.1534 106.325 38.954C106.813 37.7811 108.203 37.26 109.389 37.7818C110.528 38.2826 111.107 39.6698 110.619 40.8426C110.063 42.0421 108.65 42.5528 107.511 42.0519Z" fill="#D1D5DB"/>
<path d="M119.826 43.5501C121.494 41.8288 122.445 41.7298 123.752 42.0033C124.764 42.2115 125.633 42.2819 126.24 41.6559C126.846 41.03 126.734 40.1493 126.123 39.5566C125.525 38.9777 124.557 38.8668 123.853 39.5643L121.592 37.3727C123.646 35.3091 126.107 35.8727 127.97 37.6784C130.033 39.6771 130.562 42.1201 128.811 43.9268C127.653 45.1217 126.296 45.2411 124.792 44.8866C123.583 44.5975 122.799 44.6659 121.917 45.5763L121.724 45.7754L119.633 43.7492L119.826 43.5501ZM117.53 48.0828C116.819 47.3936 116.787 46.2595 117.504 45.5478C118.165 44.8369 119.3 44.8331 120.011 45.5223C120.694 46.1839 120.74 47.3318 120.079 48.0427C119.362 48.7544 118.213 48.7444 117.53 48.0828Z" fill="#D1D5DB"/>
</svg>
